<?xml version="1.0" encoding="UTF-8"?>
<svg viewBox="0 0 744.09448 578.70087" xmlns="http://www.w3.org/2000/svg">
 <defs>
  <filter id="c">
   <feGaussianBlur stdDeviation="6.2326"/>
  </filter>
  <filter id="a">
   <feGaussianBlur stdDeviation="4.3624"/>
  </filter>
  <linearGradient id="b" x1="400.62" x2="399.01" y1="572.77" y2="285.39" gradientUnits="userSpaceOnUse">
   <stop stop-color="#bcffff" offset="0"/>
   <stop stop-color="#cfffff" stop-opacity="0" offset="1"/>
  </linearGradient>
 </defs>
 <g transform="translate(0 -285.39)">
  <path d="m0 285.39h744.09v289.39h-744.09z" fill="url(#b)" fill-rule="evenodd"/>
  <path d="m0 574.77h744.09v289.31h-744.09z" fill="#6c5353" fill-rule="evenodd"/>
  <path d="m187.78 559.34c1.6016 3.8658 3.7805 7.5024 7.1562 10.562 11.785 10.683 21.181 24.001 35.562 31.812 21.396 11.621 42.207 24.35 65.062 32.938 21.903 8.2294 43.444 18.727 66.531 22.5 1.7626 0.28809 4.4254 1.0971 6.9062 1.7812 0.35713-0.66722 1.3046-1.6914 3.0625-3.1875 1.7578 1.4961 2.6741 2.5203 3.0312 3.1875 2.4809-0.68413 5.1436-1.4932 6.9062-1.7812 23.087-3.7733 44.629-14.271 66.531-22.5 22.855-8.5873 43.666-21.316 65.062-32.938 14.382-7.8113 23.778-21.13 35.562-31.812 3.3757-3.0601 5.5546-6.6967 7.1562-10.562h-368.53zm187.31 99.594c-1.0825 0.29851-2.1141 0.58438-3.0312 0.78125 2.2444 0.4791 3.7056 0.47873 3.0312-0.78125zm-3.0312 0.78125c-0.92424-0.19729-1.9683-0.4795-3.0625-0.78125-0.67738 1.2656 0.80126 1.2666 3.0625 0.78125z" filter="url(#c)" stroke="#000" stroke-miterlimit="10" stroke-width="4"/>
  <path d="m136.03 546.03c-19.069 21.237-47.885 53.947-92.438 105.53 0.14662 1.5483 0.31804 3.0836 0.5 4.5938 1.3482 11.189 3.7166 21.153 7.7812 27.344s9.8162 8.6046 16.156 9.4688 13.26 0.1875 19.625 0.1875 14.661 0.10582 22.438-1.3438 15.035-4.4659 19.312-10.656 9.8244-17.746 14.312-30.531 8.7812-34.461 8.7812-45.531 0.21963-21.241 0.5625-33c0.17436-5.9796 1.7615-1.8724 8.5625 0.75 8.4741 3.2675 38.028 3.7271 41.062 0.53125 0.73751-1.1374-9.1502-16.759-14.375-27.344h-52.281z" filter="url(#a)" opacity=".95" stroke="#000" stroke-dashoffset="7.0866" stroke-linecap="square" stroke-linejoin="round" stroke-width="4"/>
  <path d="m552 546.03c-5.2248 10.585-15.113 26.206-14.375 27.344 3.0342 3.1958 32.588 2.7363 41.062-0.53125 6.801-2.6224 8.3881-6.7296 8.5625-0.75 0.34287 11.759 0.5625 21.93 0.5625 33s4.2932 32.746 8.7812 45.531 10.035 24.341 14.312 30.531 11.536 9.2067 19.312 10.656 16.073 1.3438 22.438 1.3438 13.285 0.67667 19.625-0.1875 12.092-3.2784 16.156-9.4688 6.4331-16.155 7.7812-27.344c0.18196-1.5101 0.35338-3.0454 0.5-4.5938-44.552-51.584-73.368-84.294-92.438-105.53h-52.281z" filter="url(#a)" opacity=".95" stroke="#000" stroke-dashoffset="7.0866" stroke-linecap="square" stroke-linejoin="round" stroke-width="4"/>
  <path d="m382 651.16c11.842 0.63028 23.628-2.3862 34.623-6.8291s21.35-10.3 31.92-15.677c21.674-11.026 44.396-20.105 65.056-32.93 13.612-8.4502 26.419-18.675 35.562-31.831 6.7531-9.7161 11.376-20.905 13.451-32.554-0.7673-10.257-4.7638-20.248-11.282-28.204-3.0792-3.7588-6.6807-7.049-10.173-10.427-10.641-10.294-20.397-21.542-31.809-30.974-11.322-9.3575-24.115-16.791-37.27-23.326-16.755-8.3238-34.217-15.266-52.224-20.343-15.625-4.406-31.648-7.4034-47.809-8.944-16.161 1.5406-32.184 4.538-47.809 8.944-18.007 5.0775-35.468 12.019-52.224 20.343-13.155 6.5349-25.948 13.968-37.27 23.326-11.413 9.4323-21.168 20.68-31.809 30.974-3.4924 3.3785-7.0938 6.6686-10.173 10.427-6.5178 7.9563-10.514 17.948-11.282 28.204 2.0748 11.649 6.6978 22.838 13.451 32.554 9.1438 13.156 21.951 23.381 35.562 31.831 20.66 12.826 43.382 21.905 65.056 32.93 10.57 5.3769 20.925 11.234 31.92 15.677s22.781 7.4594 34.623 6.8291c3.3504-0.17832 6.6853-0.64769 9.9548-1.4011 3.2695 0.75339 6.6044 1.2228 9.9548 1.4011" fill="#fff" stroke="#000" stroke-width="4"/>
  <path d="m148.49 603.1c0 11.07-4.2702 32.739-8.7582 45.525s-10.045 24.351-14.323 30.541-11.533 9.1875-19.31 10.637-16.076 1.3516-22.441 1.3516-13.28 0.68342-19.62-0.18075-12.105-3.2759-16.17-9.4663-6.429-16.159-7.7772-27.348-1.6802-23.598-1.6802-34.668c0-22.141 15.59-56.873 23.933-71.383 9.0932-20.295 29.652-36.285 44.086-41.576s21.758-4.8106 34.951-0.0535 30.346 8.0993 35.716 17.947c1.3425 2.4618 0.10072 2.0716 2.2212 5.137s0.18776 2.0357 1.9673 5.3078c-1.7699 4.3836 18.443 34.888 17.402 36.494-3.0342 3.1958-32.582 2.7483-41.057-0.51926-6.801-2.6224-8.3951-6.7405-8.5694-0.76095-0.34287 11.759-0.57134 21.946-0.57134 33.016z" fill="#fff" stroke="#000" stroke-dashoffset="7.0866" stroke-linecap="square" stroke-linejoin="round" stroke-width="4"/>
  <path d="m64.44 690.35c0.25909 1.34 0.92536 0.3183 1.388 0.47746s1.0582 1.6149 1.388 0.47744c0.86804-2.9937 0.69875-9.3377 0.31244-14.933s0.06093-10.081-0.98962-10.443-0.86566 4.3418-1.5608 9.5653-1.2199 11.329-0.53805 14.856z" fill-rule="evenodd"/>
  <path d="m82.44 690.35c0.25909 1.34 0.92536 0.3183 1.388 0.47746s1.0582 1.6149 1.388 0.47744c0.86804-2.9937 0.69875-9.3377 0.31244-14.933s0.06093-10.081-0.98962-10.443-0.86566 4.3418-1.5608 9.5653-1.2199 11.329-0.53805 14.856z" fill-rule="evenodd"/>
  <path d="m107.05 688.6c0.37323 1.0731 0.75113 0.13342 1.1267 0.20015s1.0219 1.1884 1.1267 0.20014c0.27579-2.6009-0.68031-7.8299-1.7054-12.409s-1.2663-8.3559-2.119-8.5074-0.0984 3.7168 0.0488 8.1396 0.53995 9.5518 1.5222 12.376z" fill-rule="evenodd"/>
  <path d="m149.13 567.86c0.83893 0.58258 0.78637-0.13704 1.1796-0.20553s1.518 0.46423 1.1796-0.20555c-0.89083-1.7628-4.1439-4.8578-7.1742-7.5122s-4.9452-5.0235-5.838-4.868 1.5593 2.4312 3.6705 5.2456 4.7745 6.0123 6.9825 7.5456z" fill-rule="evenodd"/>
  <path d="m592.65 603.1c0 11.07 4.2702 32.739 8.7582 45.525s10.045 24.351 14.323 30.541 11.533 9.1875 19.31 10.637 16.076 1.3516 22.441 1.3516 13.28 0.68342 19.62-0.18075 12.105-3.2759 16.17-9.4663 6.429-16.159 7.7772-27.348 1.6802-23.598 1.6802-34.668c0-22.141-15.59-56.873-23.933-71.383-9.0932-20.295-29.652-36.285-44.086-41.576s-21.758-4.8106-34.951-0.0535-30.346 8.0993-35.716 17.947c-1.3425 2.4618-0.10072 2.0716-2.2212 5.137s-0.18776 2.0357-1.9673 5.3078c1.7699 4.3836-18.443 34.888-17.402 36.494 3.0342 3.1958 32.582 2.7483 41.057-0.51926 6.801-2.6224 8.3951-6.7405 8.5694-0.76095 0.34287 11.759 0.57134 21.946 0.57134 33.016z" fill="#fff" stroke="#000" stroke-dashoffset="7.0866" stroke-linecap="square" stroke-linejoin="round" stroke-width="4"/>
  <path d="m676.7 690.35c-0.25909 1.34-0.92536 0.3183-1.388 0.47746s-1.0582 1.6149-1.388 0.47744c-0.86804-2.9937-0.69875-9.3377-0.31244-14.933s-0.0609-10.081 0.98962-10.443 0.86566 4.3418 1.5608 9.5653 1.2199 11.329 0.53805 14.856z" fill-rule="evenodd"/>
  <path d="m658.7 690.35c-0.25909 1.34-0.92536 0.3183-1.388 0.47746s-1.0582 1.6149-1.388 0.47744c-0.86804-2.9937-0.69875-9.3377-0.31244-14.933s-0.0609-10.081 0.98962-10.443 0.86566 4.3418 1.5608 9.5653 1.2199 11.329 0.53805 14.856z" fill-rule="evenodd"/>
  <path d="m634.09 688.6c-0.37323 1.0731-0.75113 0.13342-1.1267 0.20015s-1.0219 1.1884-1.1267 0.20014c-0.27579-2.6009 0.68031-7.8299 1.7054-12.409s1.2663-8.3559 2.119-8.5074 0.0984 3.7168-0.0488 8.1396-0.53995 9.5518-1.5222 12.376z" fill-rule="evenodd"/>
  <path d="m592.01 567.86c-0.83893 0.58258-0.78637-0.13704-1.1796-0.20553s-1.518 0.46423-1.1796-0.20555c0.89083-1.7628 4.1439-4.8578 7.1742-7.5122s4.9452-5.0235 5.838-4.868-1.5593 2.4312-3.6705 5.2456-4.7745 6.0123-6.9825 7.5456z" fill-rule="evenodd"/>
  <path d="m161.4 426.33c1.2021-6.3399 10.578-8.2257 16.923-9.4014 35.166-6.5163 106.24 15.042 106.24 15.042l-24.101 12.516-18.922 11.602-18.313 16.171-14.353 14.648s-52.612-33.456-47.469-60.579z" fill="#fff" stroke="#000" stroke-dashoffset="7.0866" stroke-linecap="square" stroke-linejoin="round" stroke-width="4"/>
  <path d="m582.21 426.33c-1.2021-6.3399-10.578-8.2257-16.923-9.4014-35.166-6.5163-106.24 15.042-106.24 15.042l24.101 12.516 18.922 11.602 18.313 16.171 14.353 14.648s52.612-33.456 47.469-60.579z" fill="#fff" stroke="#000" stroke-dashoffset="7.0866" stroke-linecap="square" stroke-linejoin="round" stroke-width="4"/>
  <path d="m370.83 567.73 0.45799 32.24-16.488 14.171" fill="none" stroke="#000" stroke-width="2.4018"/>
  <path d="m373.26 567.73-0.45799 32.24 16.488 14.171" fill="none" stroke="#000" stroke-width="2.4018"/>
  <path transform="translate(9.4345 60.922)" d="m348.79 441.27a47.477 54.528 0 1 1 -94.954 0 47.477 54.528 0 1 1 94.954 0z" fill="#007ac5" opacity=".481" stroke="#b3b3b3" stroke-dashoffset="7.0866" stroke-linecap="square" stroke-linejoin="round"/>
  <path transform="matrix(.84081 0 0 .84643 53.764 128.97)" d="m348.79 441.27a47.477 54.528 0 1 1 -94.954 0 47.477 54.528 0 1 1 94.954 0z" fill="#fff" stroke="#b3b3b3" stroke-dashoffset="7.0866" stroke-linecap="square" stroke-linejoin="round"/>
  <path d="m313.17 481.05c-14.368 0-26 13.401-26 29.938 0 7.2608 2.2367 13.911 5.9688 19.094 0.51531-0.13877 1.0622-0.21875 1.625-0.21875 3.2434 0 5.8438 2.4864 5.8438 5.5312 0 0.5709-0.0784 1.1071-0.25 1.625 3.7806 2.4686 8.1531 3.9062 12.812 3.9062 14.368 0 26.031-13.401 26.031-29.938 0-4.4334-0.84144-8.6522-2.3438-12.438-1.7554 2.5317-4.789 4.1875-8.2188 4.1875-5.4218 0-9.8125-4.1618-9.8125-9.3125 0-4.1052 2.809-7.5666 6.6875-8.8125-3.6722-2.2818-7.8779-3.5625-12.344-3.5625z" fill-rule="evenodd" stroke="#010101" stroke-dashoffset="7.0866" stroke-linecap="square" stroke-linejoin="round" stroke-width="4"/>
  <path transform="matrix(-1 0 0 1 732.06 60.922)" d="m348.79 441.27a47.477 54.528 0 1 1 -94.954 0 47.477 54.528 0 1 1 94.954 0z" fill="#007ac5" opacity=".481" stroke="#b3b3b3" stroke-dashoffset="7.0866" stroke-linecap="square" stroke-linejoin="round"/>
  <path transform="matrix(-.84081 0 0 .84643 687.73 128.97)" d="m348.79 441.27a47.477 54.528 0 1 1 -94.954 0 47.477 54.528 0 1 1 94.954 0z" fill="#fff" stroke="#b3b3b3" stroke-dashoffset="7.0866" stroke-linecap="square" stroke-linejoin="round"/>
  <path d="m428.33 481.05c14.368 0 26 13.401 26 29.938 0 7.2608-2.2367 13.911-5.9688 19.094-0.51531-0.13877-1.0622-0.21875-1.625-0.21875-3.2434 0-5.8438 2.4864-5.8438 5.5312 0 0.5709 0.0784 1.1071 0.25 1.625-3.7806 2.4686-8.1531 3.9062-12.812 3.9062-14.368 0-26.031-13.401-26.031-29.938 0-4.4334 0.84144-8.6522 2.3438-12.438 1.7554 2.5317 4.789 4.1875 8.2188 4.1875 5.4218 0 9.8125-4.1618 9.8125-9.3125 0-4.1052-2.809-7.5666-6.6875-8.8125 3.6722-2.2818 7.8779-3.5625 12.344-3.5625z" fill-rule="evenodd" stroke="#010101" stroke-dashoffset="7.0866" stroke-linecap="square" stroke-linejoin="round" stroke-width="4"/>
  <path d="m360.06 545.63c2.8302-2.8362 8.0136 0 12.02 0s9.1849-2.831 12.02 0c4.2272 4.2205 3.4213 13.004 0.0286 17.92-2.381 3.4503-11.765 4.4435-11.765 4.4435s-9.7395-0.56748-12.265-4.055c-3.5798-4.9428-4.3498-13.989-0.0389-18.309z" fill="#010000" fill-rule="evenodd" stroke="#010101" stroke-dashoffset="7.0866" stroke-linecap="square" stroke-linejoin="round" stroke-width="1.1942"/>
  <path d="m367.29 577.11c-36.847-11.81-37.319-12.046-37.319-12.046" fill="none" stroke="#000"/>
  <path d="m366.58 582.07c-27.163-4.9601-28.107-4.7239-28.107-4.7239" fill="none" stroke="#000"/>
  <path d="m367.29 585.85-39.917 1.8896" fill="none" stroke="#000"/>
  <path d="m376.37 577.11c36.847-11.81 37.319-12.046 37.319-12.046" fill="none" stroke="#000"/>
  <path d="m377.07 582.07c27.163-4.9601 28.107-4.7239 28.107-4.7239" fill="none" stroke="#000"/>
  <path d="m376.37 585.85 39.917 1.8896" fill="none" stroke="#000"/>
 </g>
</svg>
